<?xml version="1.0" standalone="no"?>
<!DOCTYPE svg PUBLIC "-//W3C//DTD SVG 20010904//EN"
 "http://www.w3.org/TR/2001/REC-SVG-20010904/DTD/svg10.dtd">
<svg version="1.0" xmlns="http://www.w3.org/2000/svg"
 width="694.000000pt" height="694.000000pt" viewBox="0 0 694.000000 694.000000"
 preserveAspectRatio="xMidYMid meet">
<metadata>
Created by potrace 1.13, written by Peter Selinger 2001-2015
</metadata>
<g transform="translate(0.000000,694.000000) scale(0.100000,-0.100000)"
fill="#652278" stroke="none">
<path d="M0 3470 l0 -3470 3470 0 3470 0 0 3470 0 3470 -3470 0 -3470 0 0
-3470z m5592 1644 c4 -3 8 -23 8 -45 l0 -39 -40 6 c-49 8 -94 -9 -109 -42 -6
-14 -11 -55 -11 -92 l0 -67 65 2 65 1 0 -44 0 -44 -65 0 -65 0 0 -250 0 -250
-50 0 -50 0 0 250 0 250 -50 0 -50 0 0 43 0 42 47 0 48 0 5 85 c7 121 41 169
140 201 24 8 95 4 112 -7z m-3168 -30 c25 -25 20 -69 -11 -93 -30 -24 -58 -20
-86 12 -19 21 -16 59 5 84 15 18 73 16 92 -3z m-991 -26 c20 -50 268 -621 275
-633 5 -11 51 82 153 312 l145 328 62 3 62 3 0 -411 0 -410 -51 0 -52 0 6 343
c4 263 2 336 -6 318 -7 -14 -73 -167 -147 -340 -132 -308 -136 -316 -165 -319
l-30 -2 -144 340 c-79 187 -146 340 -149 340 -2 0 -1 -153 2 -340 l7 -340 -55
0 -55 0 0 401 c0 221 2 406 5 410 8 14 131 11 137 -3z m4389 -139 l3 -81 68
-1 67 -1 0 -43 0 -43 -70 0 -70 0 0 -185 c0 -118 4 -193 12 -209 13 -30 67
-44 104 -27 23 10 24 10 24 -34 0 -51 -13 -59 -99 -57 -63 1 -97 21 -123 73
-15 29 -18 63 -18 237 l0 202 -50 0 -50 0 0 43 0 43 48 0 47 -1 3 72 c3 68 4
72 30 82 15 5 37 10 49 10 21 1 22 -4 25 -80z m439 15 c91 -46 105 -172 29
-245 -66 -63 -154 -63 -220 0 -29 27 -40 47 -45 81 -20 135 114 228 236 164z
m-3278 -104 c24 -12 27 -19 27 -62 0 -26 -2 -48 -4 -48 -2 0 -23 9 -47 20 -82
37 -176 22 -231 -36 -62 -67 -79 -194 -37 -280 43 -91 156 -129 253 -86 25 12
50 22 54 24 4 2 7 -17 7 -41 1 -53 -14 -64 -101 -81 -70 -14 -138 -4 -203 30
-101 51 -157 189 -132 325 22 117 77 189 177 231 50 21 71 24 134 21 41 -2 87
-10 103 -17z m455 10 c8 0 12 -18 12 -55 0 -52 -1 -55 -19 -45 -55 29 -130 0
-163 -63 -21 -39 -23 -57 -26 -234 l-4 -193 -49 0 -49 0 0 293 0 293 48 -1 47
-1 5 -50 c4 -37 7 -44 13 -28 17 47 107 100 152 89 11 -3 26 -5 33 -5z m442
-6 c74 -22 134 -81 161 -159 30 -85 24 -219 -13 -290 -53 -101 -135 -149 -258
-149 -62 -1 -85 4 -132 27 -102 50 -150 136 -151 272 0 91 13 142 54 202 66
96 207 136 339 97z m593 -3 c24 -9 27 -15 27 -61 0 -27 -1 -50 -3 -50 -1 0
-20 9 -42 20 -44 23 -117 26 -154 7 -33 -16 -46 -59 -29 -94 9 -19 38 -40 96
-70 126 -63 152 -94 152 -181 0 -101 -85 -167 -215 -166 -41 0 -85 7 -107 17
-37 15 -38 18 -38 66 0 28 2 51 4 51 3 0 22 -10 43 -22 29 -18 53 -23 106 -23
60 0 71 3 88 24 26 31 24 73 -3 98 -13 11 -60 39 -106 63 -94 49 -123 82 -130
150 -8 81 44 153 128 179 41 12 143 8 183 -8z m522 8 c71 -20 121 -63 156
-135 30 -60 33 -74 32 -157 0 -113 -24 -177 -90 -238 -60 -55 -104 -72 -193
-73 -101 -1 -156 21 -215 86 -59 66 -79 132 -73 242 6 113 41 177 131 246 46
35 177 50 252 29z m-2567 -297 l2 -292 -50 0 -50 0 0 294 0 293 48 -2 47 -1 3
-292z m-243 -1433 c308 -485 564 -888 570 -895 7 -10 10 267 10 878 l0 893
128 3 127 3 0 -1071 0 -1071 -157 3 -157 3 -143 225 c-79 124 -244 383 -367
575 -122 193 -317 498 -432 679 l-209 329 -3 -906 -2 -907 -130 0 -130 0 0
1064 c0 585 3 1066 7 1070 3 3 79 6 167 6 l161 0 560 -881z m2385 761 l0 -120
-415 0 -415 0 0 -350 0 -350 385 0 385 0 0 -115 0 -115 -385 0 -385 0 0 -370
0 -370 440 0 440 0 0 -115 0 -115 -570 0 -570 0 0 1063 c0 585 3 1067 7 1070
3 4 249 7 545 7 l538 0 0 -120z m1763 0 l1 -115 -307 -3 -307 -2 0 -950 0
-950 -130 0 -129 0 2 950 2 950 -307 0 -308 0 0 120 0 120 741 -2 741 -3 1
-115z m-5493 -1732 c137 -70 127 -259 -16 -314 -40 -15 -53 -16 -93 -5 -138
37 -177 209 -67 297 61 49 110 55 176 22z"/>
<path d="M6110 4908 c-47 -32 -62 -63 -57 -121 7 -82 83 -138 161 -116 64 18
96 62 96 133 0 38 -6 53 -33 82 -28 30 -42 37 -83 41 -40 4 -55 0 -84 -19z
m122 -25 c24 -21 23 -55 -2 -78 -17 -15 -18 -21 -7 -34 7 -9 18 -28 25 -43 10
-25 10 -28 -8 -28 -13 0 -27 14 -40 40 -11 22 -27 40 -35 40 -11 0 -15 -11
-15 -40 0 -29 -4 -40 -15 -40 -12 0 -15 18 -15 100 l0 100 47 0 c29 0 53 -6
65 -17z"/>
<path d="M6150 4840 c0 -25 4 -30 25 -30 29 0 50 31 33 48 -7 7 -22 12 -35 12
-19 0 -23 -5 -23 -30z"/>
<path d="M3698 4747 c-73 -33 -107 -98 -108 -207 0 -154 86 -236 225 -215 89
13 145 97 145 214 -1 141 -67 222 -179 220 -31 0 -68 -6 -83 -12z"/>
<path d="M4805 4737 c-24 -14 -50 -40 -65 -67 -21 -38 -25 -58 -25 -130 0 -75
3 -91 27 -132 49 -83 154 -111 246 -67 36 18 49 32 69 76 22 49 25 65 21 143
-3 74 -8 94 -30 127 -14 22 -42 47 -61 56 -51 25 -133 22 -182 -6z"/>
</g>
</svg>
